<?xml version="1.0" encoding="UTF-8" standalone="no"?>
<svg
   xmlns:dc="http://purl.org/dc/elements/1.1/"
   xmlns:cc="http://creativecommons.org/ns#"
   xmlns:rdf="http://www.w3.org/1999/02/22-rdf-syntax-ns#"
   xmlns:svg="http://www.w3.org/2000/svg"
   xmlns="http://www.w3.org/2000/svg"
   viewBox="0 0 328 109.33333"
   height="109.33333"
   width="328"
   xml:space="preserve"
   id="svg2"
   version="1.1"><metadata
     id="metadata8"><rdf:RDF><cc:Work
         rdf:about=""><dc:format>image/svg+xml</dc:format><dc:type
           rdf:resource="http://purl.org/dc/dcmitype/StillImage" /></cc:Work></rdf:RDF></metadata><defs
     id="defs6" /><g
     transform="matrix(1.3333333,0,0,-1.3333333,0,109.33333)"
     id="g10"><g
       transform="scale(0.1)"
       id="g12"><path
         id="path14"
         style="fill:#ed1a3b;fill-opacity:1;fill-rule:evenodd;stroke:none"
         d="M 1159.18,381.988 V 556.02 H 1405.2 V 381.988 h 60.74 V 757.73 H 1405.2 V 609.262 H 1159.18 V 757.73 H 1097.7 V 381.988 Z" /><path
         id="path16"
         style="fill:#ed1a3b;fill-opacity:1;fill-rule:evenodd;stroke:none"
         d="m 1731.45,412.73 c 6.01,-30 26.99,-33.75 48.75,-33.75 13.51,0 29.25,1.532 41.25,3.008 l 2.26,0.742 v 42.04 l -3.75,-0.79 c -5.27,-0.742 -12.03,-2.218 -17.26,-2.218 -14.26,0 -20.24,5.968 -20.24,20.226 v 146.25 c 0,69.774 -80.27,80.282 -128.28,80.282 -87.73,0 -131.25,-30.79 -137.97,-96.758 v -3.012 h 54.73 v 3.012 c 1.52,34.488 27.77,50.968 81.01,50.968 52.5,0 75.75,-12.73 75.75,-41.992 0,-20.968 -14.26,-26.25 -44.26,-30 l -59.26,-5.968 c -85.47,-9.032 -119.22,-33.75 -119.22,-87.782 0,-25.508 11.25,-84.718 113.24,-84.718 38.25,0 88.48,12.73 113.25,40.46 z m -34.5,26.25 c -19.49,-13.468 -45.74,-20.968 -74.25,-20.968 -36.02,0 -60.75,16.476 -60.75,40.508 0,24.718 16.49,35.968 59.26,41.992 l 58.48,7.5 c 23.24,3.008 38.24,5.968 47.26,12.726 V 492.27 c 0.75,-21.02 -10.5,-39.77 -30,-53.29 z" /><path
         id="path18"
         style="fill:#ed1a3b;fill-opacity:1;fill-rule:evenodd;stroke:none"
         d="m 2160.43,423.98 c -5.23,-0.742 -11.99,-2.218 -17.23,-2.218 -14.25,0 -20.27,5.968 -20.27,20.226 v 146.25 c 0,69.774 -80.23,80.282 -128.24,80.282 -87.74,0 -131.25,-30.79 -138.01,-96.758 v -3.012 h 54.77 v 3.012 c 1.48,34.488 27.73,50.968 81.01,50.968 52.5,0 75.74,-12.73 75.74,-41.992 0,-20.968 -14.25,-26.25 -44.25,-30 l -59.26,-5.968 c -85.51,-9.032 -119.26,-33.75 -119.26,-87.782 0,-25.508 11.25,-84.718 113.28,-84.718 38.24,0 89.22,12.73 113.99,40.46 6.01,-30 26.99,-33.75 48.75,-33.75 13.51,0 29.25,1.532 41.25,3.008 l 2.26,0.742 v 42.04 z m -92.97,68.29 c 0,-20.282 -11.25,-39.032 -30.78,-52.5 -19.49,-13.52 -45.74,-21.02 -74.22,-21.02 -36.01,0 -60.78,16.48 -60.78,40.512 0,24.718 16.52,35.968 59.26,41.988 l 58.51,7.5 c 23.25,3.012 38.25,6.02 47.23,12.73 z" /><path
         id="path20"
         style="fill:#ed1a3b;fill-opacity:1;fill-rule:evenodd;stroke:none"
         d="m 2177.7,472.73 v -2.96 c 4.49,-64.54 52.5,-97.5 141.75,-97.5 42.74,0 77.23,7.5 100.51,23.242 25.47,16.476 38.24,40.508 38.24,72.726 0,41.992 -30.74,66.024 -97.5,75 l -73.51,9.774 c -35.98,5.226 -42.74,15 -42.74,30.738 0,13.52 7.5,23.238 21.76,30 11.99,5.23 28.48,8.238 47.23,8.238 56.25,0 77.26,-24.718 78.75,-48.008 v -2.96 h 57.77 v 2.96 c -5.27,60.79 -53.28,93.75 -135.78,93.75 -38.24,0 -69.73,-8.242 -92.23,-23.98 -22.5,-15.738 -34.49,-38.98 -34.49,-66.762 0,-45 38.24,-69.718 76.49,-75 l 85.5,-11.25 c 40.51,-5.226 48.75,-16.476 48.75,-33.75 0,-7.5 -2.26,-18.008 -15,-26.25 -13.51,-8.976 -35.27,-13.468 -65.27,-13.468 -60.74,0 -82.5,26.992 -82.5,51.71 v 3.008 h -57.73 z" /><path
         id="path22"
         style="fill:#000000;fill-opacity:1;fill-rule:evenodd;stroke:none"
         d="M 1281.45,313.75 H 1098.44 V 78.9805 h 39.76 V 181.02 h 136.49 v 35.23 H 1138.2 v 62.27 h 143.25 z" /><path
         id="path24"
         style="fill:#000000;fill-opacity:1;fill-rule:evenodd;stroke:none"
         d="m 1375.2,313.75 v -3.012 c -2.27,-26.25 -23.99,-39.718 -63.75,-39.718 h -10.51 v -30.79 h 66.76 V 78.2383 h 39.76 V 313.012 h -32.26 z" /><path
         id="path26"
         style="fill:#000000;fill-opacity:1;fill-rule:evenodd;stroke:none"
         d="m 1751.68,278.52 v 35.23 h -213.75 v -35.23 h 87.03 V 78.9805 h 39.73 V 278.52 Z" /><path
         id="path28"
         style="fill:#000000;fill-opacity:1;fill-rule:evenodd;stroke:none"
         d="m 1820.7,258.238 c -31.52,0 -57.77,-9.718 -75.74,-27.726 -16.52,-16.532 -24.76,-39.774 -24.76,-65.282 0,-56.25 39.76,-92.9605 100.5,-92.9605 32.23,0 72,15.7422 89.26,58.4685 l 1.49,3.75 h -40.51 l -0.74,-1.476 c -12,-25.512 -39.77,-28.524 -51.76,-28.524 -26.25,0 -54.73,16.532 -58.48,47.274 h 154.49 v 6.758 c 0.75,74.21 -48,99.718 -93.75,99.718 z m -1.52,-32.218 c 28.52,0 49.53,-15.79 55.51,-42.04 h -112.5 c 5.27,25.508 27.77,42.04 56.99,42.04 z" /><path
         id="path30"
         style="fill:#000000;fill-opacity:1;fill-rule:evenodd;stroke:none"
         d="m 2130.43,106.762 c -2.97,-0.742 -7.5,-1.532 -10.47,-1.532 -8.28,0 -11.25,3.008 -11.25,11.25 v 91.532 c 0,44.258 -50.27,50.968 -80.27,50.968 -54.73,0 -82.5,-19.492 -86.25,-60.742 v -3.008 h 36.01 v 3.008 c 0.75,20.282 16.49,30.742 48.75,30.742 32.23,0 45.75,-7.5 45.75,-24.718 0,-12.782 -8.25,-15 -26.25,-17.274 l -36.76,-3.75 c -53.24,-5.968 -75,-21.758 -75,-55.508 0,-15.742 6.76,-53.2417 71.25,-53.2417 23.24,0 54.02,7.5 69.76,24.0312 4.5,-17.2695 18.01,-20.2812 30.75,-20.2812 8.24,0 18,0.7422 25.5,2.2734 l 2.23,0.7383 v 28.52 z m -58.48,41.25 c 0,-11.992 -6.75,-23.242 -18.75,-31.532 -11.99,-8.242 -27.77,-12.73 -45,-12.73 -21.75,0 -36.01,9.77 -36.01,23.98 0,15 9.76,21.758 36.01,24.77 l 35.98,4.488 c 13.52,1.532 22.5,3.012 28.52,6.762 z" /><path
         id="path32"
         style="fill:#000000;fill-opacity:1;fill-rule:evenodd;stroke:none"
         d="m 2449.96,196.02 c 0,49.492 -42.03,62.218 -66.76,62.218 -29.25,0 -50.27,-8.976 -67.5,-29.258 -12.77,18.75 -33,29.258 -57.77,29.258 -16.48,0 -45,-3.75 -63.75,-26.25 v 20.282 h -38.24 V 78.2383 h 38.24 v 99.7737 c 0,14.258 5.27,26.988 15.78,35.226 8.99,7.5 22.5,11.992 36.72,11.992 17.27,0 37.5,-6.71 37.5,-37.5 V 78.2383 h 38.28 V 183.238 c 0,13.524 5.24,24.774 15.74,32.274 8.99,6.758 22.5,10.508 36.76,10.508 17.23,0 37.5,-6.758 37.5,-37.5 V 78.9805 h 37.5 z" /><path
         id="path34"
         style="fill:#000000;fill-opacity:1;fill-rule:evenodd;stroke:none"
         d="m 1424.69,308.52 h 9.02 V 287.5 h 3.75 v 21.02 h 8.99 v 2.96 h -21.76 z" /><path
         id="path36"
         style="fill:#000000;fill-opacity:1;fill-rule:evenodd;stroke:none"
         d="m 1463.71,291.25 -9.76,20.23 h -4.5 V 287.5 h 3.75 v 19.488 l 8.99,-19.488 h 3.01 l 9.76,20.23 V 287.5 h 3.75 v 23.98 h -5.27 z" /><path
         id="path38"
         style="fill:#ed1a3b;fill-opacity:1;fill-rule:evenodd;stroke:none"
         d="m 509.691,816.25 c -222.742,0 -402.742,-180.738 -402.742,-403.52 0,-8.242 0,-15.742 0.75,-23.242 H 55.1992 c -3.0078,0 -4.5,-1.476 -6.0195,-3.75 C 48.4414,383.52 1.94922,301.762 0.429688,299.488 -0.308594,297.27 -0.308594,296.48 1.94922,296.48 H 124.18 C 174.449,130.738 328.199,10 510.43,10 733.199,10 913.949,190.738 913.949,413.52 913.199,635.512 732.461,816.25 509.691,816.25 Z M 221.68,296.48 h 107.269 l -51.758,-90 c -22.5,26.25 -41.992,56.25 -55.511,90 z M 509.691,102.27 c -84.73,0 -161.25,33.75 -216.761,88.468 h 87.031 c 0,0 250.469,441.762 251.988,444.032 1.492,1.48 0.75,2.96 -1.519,2.96 H 528.441 c -2.23,0 -2.23,-0.742 -3.011,-1.48 -0.739,-1.48 -141.719,-246.762 -141.719,-246.762 h -183.75 c -0.781,7.5 -0.781,15.742 -0.781,23.242 0,171.758 138.75,311.25 310.511,311.25 87.77,0 166.52,-36.71 223.508,-95.23 -24.758,-41.25 -134.25,-228.012 -149.25,-255 -8.25,19.488 -48.008,15.738 -68.988,16.48 -9.02,-15 -50.27,-93.75 -50.27,-93.75 0,0 23.239,0 43.508,0 20.242,0 22.5,-20.968 14.262,-34.492 -8.281,-13.468 -40.512,-71.25 -40.512,-71.25 h 105.75 c 0,0 129.762,226.532 203.242,354.774 19.489,-40.512 30,-85.512 30,-132.782 0,-170.968 -139.492,-310.46 -311.25,-310.46 z" /></g></g></svg>