<?xml version="1.0" encoding="UTF-8" standalone="no"?>
<!-- Created with Inkscape (http://www.inkscape.org/) -->

<svg
   xmlns:dc="http://purl.org/dc/elements/1.1/"
   xmlns:cc="http://creativecommons.org/ns#"
   xmlns:rdf="http://www.w3.org/1999/02/22-rdf-syntax-ns#"
   xmlns:svg="http://www.w3.org/2000/svg"
   xmlns="http://www.w3.org/2000/svg"
   xmlns:sodipodi="http://sodipodi.sourceforge.net/DTD/sodipodi-0.dtd"
   xmlns:inkscape="http://www.inkscape.org/namespaces/inkscape"
   width="517.09003"
   height="545.35999"
   id="svg2"
   version="1.1"
   inkscape:version="0.48.1 "
   sodipodi:docname="Williams Logo.svg">
  <defs
     id="defs4" />
  <sodipodi:namedview
     id="base"
     pagecolor="#ffffff"
     bordercolor="#666666"
     borderopacity="1.0"
     inkscape:pageopacity="0"
     inkscape:pageshadow="2"
     inkscape:zoom="0.57533564"
     inkscape:cx="283.80946"
     inkscape:cy="390.341"
     inkscape:document-units="px"
     inkscape:current-layer="layer1"
     showgrid="false"
     inkscape:window-width="1024"
     inkscape:window-height="712"
     inkscape:window-x="-4"
     inkscape:window-y="-4"
     inkscape:window-maximized="1" />
  <metadata
     id="metadata7">
    <rdf:RDF>
      <cc:Work
         rdf:about="">
        <dc:format>image/svg+xml</dc:format>
        <dc:type
           rdf:resource="http://purl.org/dc/dcmitype/StillImage" />
        <dc:title />
      </cc:Work>
    </rdf:RDF>
  </metadata>
  <g
     inkscape:label="Capa 1"
     inkscape:groupmode="layer"
     id="layer1"
     transform="translate(0,-506.99662)">
    <path
       inkscape:connector-curvature="0"
       id="path3778"
       d="m 34.198788,699.59935 9.838007,0 0,47.31613 -9.838007,0 z"
       style="fill:none;stroke:none" />
    <g
       id="g3799"
       transform="translate(55.619707,300.69404)">
      <g
         id="g3772"
         transform="translate(-155.53421,-163.02984)">
        <path
           style="fill:#ffffff;fill-opacity:1;stroke:#000000;stroke-opacity:1"
           d="m 536.48521,476.51353 -24.38599,-0.46848 c -46.38587,-54.25264 -103.882,-65.87425 -152.77754,-63.7925 -112.19828,4.77691 -197.33112,129.34759 -161.64783,232.30141 15.32634,-1.67724 24.50551,-13.24096 36.08412,-38.65384 l 40.83547,-95.87221 62.05009,0.93696 -53.55093,123.31019 -5.86285,12.78204 c 16.60136,0.50454 29.70805,-16.46434 41.33153,-40.84926 l 42.01356,-94.7745 60.872,-0.0804 c -15.04101,34.40114 -38.30081,91.22181 -50.81625,119.6716 -4.51374,10.2605 -11.07308,17.11646 -11.07308,17.11646 12.43981,-5.47753 17.92832,0.884 40.76888,-32.65782 l 44.891,-105.45529 110.3674,0 c 25.02913,70.53081 15.21184,121.72179 -3.03821,169.99473 -98.72002,196.05117 -322.6383,135.81473 -376.3147,29.15114 l 22.68664,0 c 36.16369,44.21337 84.17304,63.26874 140.29473,65.08829 116.77447,-1.41484 208.85284,-110.76002 173.96988,-232.04481 -15.78575,0.4595 -26.65725,16.82818 -37.48955,37.10144 l -22.8336,55.25029 c -16.32967,32.40522 -42.56363,41.40029 -72.57012,41.47849 l -223.93375,-0.85657 c -20.07335,-54.89818 -25.00497,-110.26482 1.01733,-165.163 77.98229,-168.99162 286.83187,-171.44324 379.11177,-33.51438 z"
           id="path2996"
           inkscape:connector-curvature="0"
           sodipodi:nodetypes="ccscccccccccscccccccccccccccc" />
        <path
           style="fill:#0f2f75;fill-opacity:1;stroke:#5b5b5b;stroke-opacity:1"
           d="m 524.38924,470.00194 c -132.46579,-148.85646 -317.8303,-84.15918 -368.69566,68.90269 -10.18895,42.33519 -7.78901,84.01732 6.98006,127.59307 l 215.43459,0.19404 c 63.42376,3.33368 64.54763,-41.7647 79.69715,-62.19705 14.84618,-47.28194 35.52565,-71.23073 61.61491,-73.54038 20.56188,52.43537 10.60042,90.78304 -0.66253,128.53003 -55.93666,138.04571 -234.49059,164.19927 -325.46583,56.97722 l -5.6824,0.0435 c 131.8781,158.73498 347.61971,77.04778 374.87494,-102.73496 0.14817,-35.35988 -4.12993,-66.44386 -14.57557,-94.7412 l -97.39129,0.33126 -44.05798,102.36025 c -12.94922,24.18298 -34.38389,38.76683 -67.57764,34.78261 9.82747,-9.79944 19.65494,-18.88052 29.4824,-42.40166 l 39.08903,-93.74741 -42.0704,-0.99379 -43.39544,101.69767 c -17.97923,33.55455 -43.61245,36.78938 -68.57143,35.44514 11.9631,-6.96089 22.52715,-25.25982 30.14492,-42.40166 l 39.75156,-94.07868 -42.73292,10e-6 -44.7205,104.67909 c -18.27863,29.96394 -33.74242,29.27419 -44.38923,30.14492 C 144.3122,491.98849 280.303,396.21451 378.9648,403.08682 c 36.38192,3.36455 96.56162,13.6728 136.18926,67.14935 z"
           id="path2998"
           inkscape:connector-curvature="0"
           sodipodi:nodetypes="ccccccccccccccccccccccccccc" />
      </g>
      <g
         id="g3786">
        <path
           inkscape:connector-curvature="0"
           id="path3776"
           d="m -41.460174,699.83358 13.58582,34.19879 12.18039,-34.19879 10.7749603,0 12.4146284,34.90151 12.1803903,-35.36998 10.072245,-0.23424 -17.333632,47.78461 -11.0091984,0 -11.9461516,-34.19879 -12.18039,34.9015 -10.540723,0 -17.333632,-47.31613 z"
           style="fill:#0f2f75;fill-opacity:1;stroke:none" />
        <g
           id="g3770">
          <path
             inkscape:connector-curvature="0"
             id="path3780"
             d="m 34.901503,700.06783 8.666816,0 0,46.84765 -8.666816,0 z"
             style="fill:#0f2f75;fill-opacity:1;stroke:none" />
          <path
             sodipodi:nodetypes="cccccccccc"
             inkscape:connector-curvature="0"
             id="path3782"
             d="m 54.343279,699.83358 8.901054,0 0,36.77541 28.138632,-0.17128 c 1.790021,0.20904 2.942773,1.05536 3.483535,2.51366 l 0.01768,4.85713 c -0.193276,1.62907 -0.776367,2.86833 -2.828537,2.6385 l -33.027597,0 c -4.014294,-0.47308 -4.515015,-0.94617 -5.015735,-3.52739 z"
             style="fill:#0f2f75;fill-opacity:1;stroke:none" />
          <path
             style="fill:#0f2f75;fill-opacity:1;stroke:none"
             d="m 100.9567,699.83358 8.90105,0 0,36.77541 28.13863,-0.17128 c 1.79002,0.20904 2.94277,1.05536 3.48354,2.51366 l 0.0177,4.85713 c -0.19328,1.62907 -0.77637,2.86833 -2.82854,2.6385 l -33.0276,0 c -4.01429,-0.47308 -4.51501,-0.94617 -5.01573,-3.52739 z"
             id="path3784"
             inkscape:connector-curvature="0"
             sodipodi:nodetypes="cccccccccc" />
          <path
             style="fill:#0f2f75;fill-opacity:1;stroke:none"
             d="m 147.33587,699.83359 8.66682,0 0,46.84765 -8.66682,0 z"
             id="path3788"
             inkscape:connector-curvature="0" />
          <path
             sodipodi:nodetypes="ccccccccccccccccc"
             inkscape:connector-curvature="0"
             id="path3790"
             d="m 196.96875,700.96875 c -5.23363,-2.93229 -10.53125,0.25 -10.53125,0.25 l -25.95326,45.67146 12.14076,0.0473 4.3125,-8.90625 29.625,-0.46875 5.46875,9.59375 0.125,0.25 0.3125,0 11,0 c 0,0 -25.96951,-46.09725 -26.03125,-46.1875 l -0.15625,-0.25 z m 4.30932,26.22996 -18.79739,0.54122 9.78754,-16.16746 z"
             style="font-size:medium;font-style:normal;font-variant:normal;font-weight:normal;font-stretch:normal;text-indent:0;text-align:start;text-decoration:none;line-height:normal;letter-spacing:normal;word-spacing:normal;text-transform:none;direction:ltr;block-progression:tb;writing-mode:lr-tb;text-anchor:start;baseline-shift:baseline;color:#000000;fill:#0f2f75;fill-opacity:1;stroke:none;stroke-width:1px;marker:none;visibility:visible;display:inline;overflow:visible;enable-background:accumulate;font-family:Sans;-inkscape-font-specification:Sans" />
          <path
             inkscape:connector-curvature="0"
             id="path2994"
             d="m 227.47591,746.56242 10.53733,0 -0.21726,-32.58967 21.29192,33.13283 6.84383,-0.10863 21.18328,-33.56736 -0.10863,33.78463 10.1028,-0.21727 -0.21726,-47.14639 -12.05818,0.10863 -22.70414,34.65369 -22.48688,-34.97959 -11.73228,0.10864 z"
             style="fill:#0f2f75;fill-opacity:1;stroke:none" />
          <path
             sodipodi:nodetypes="ccccccccccccc"
             inkscape:connector-curvature="0"
             id="path3764"
             d="m 346.97138,699.74193 -29.3307,0.10863 c -18.48341,3.38414 -17.96907,24.71727 0,27.80985 l 23.57319,-0.10863 c 8.3614,1.0543 7.36683,8.68198 0,9.23374 l -29.3307,0 c -9.28219,0.28968 -10.02727,9.81311 0,10.32006 l 30.96018,-0.21726 c 18.12332,-6.01366 18.13198,-24.36753 0,-29.0048 l -22.05235,0.21726 c -10.68897,-0.43453 -9.67516,-8.36469 0,-8.79922 l 26.18038,0 c 8.58507,1.21611 9.3226,-10.35862 0,-9.55963 z"
             style="fill:#0f2f75;fill-opacity:1;stroke:none" />
          <path
             sodipodi:nodetypes="ccccccccccccc"
             inkscape:connector-curvature="0"
             id="path3766"
             d="m 379.77832,746.77969 10.53732,0 -0.3259,-17.1639 c 0.42899,-1.01104 -0.43533,-2.59689 2.36154,-2.55554 l 25.12242,0.27426 c 7.64402,0.13331 7.26964,-10.61667 0.21727,-10.64596 l -25.09405,0.10863 c -3.91981,0.0142 -4.12327,-6.27929 0,-6.73519 l 27.48396,-0.21726 c 5.75522,-1.01667 6.16562,-9.01025 0,-10.1028 l -33.1077,0.0118 c -4.84754,-0.18239 -7.05413,2.74222 -6.9776,8.35285 z"
             style="fill:#0f2f75;fill-opacity:1;stroke:none" />
          <path
             sodipodi:nodetypes="ccccccccc"
             inkscape:connector-curvature="0"
             id="path3768"
             d="m 450.28064,746.45379 -9.34237,0 0.26933,-35.73755 c -0.28208,-1.45734 -1.04363,-1.716 -1.89881,-1.74057 l -5.86614,0.10863 c -8.0807,-0.18105 -7.77903,-9.26995 0.10863,-9.34237 l 10.8046,0.12401 c 4.49522,-0.31657 5.97638,2.38092 6.14203,6.39392 z"
             style="fill:#0f2f75;fill-opacity:1;stroke:none" />
        </g>
      </g>
    </g>
  </g>
</svg>
